<svg width="225" height="265" viewBox="0 0 225 265" fill="none" xmlns="http://www.w3.org/2000/svg">
<path d="M202.433 10H110.99L148.516 14.4718L138.164 30.1232L1 33.7007H132.988L125.224 44.8803L60.9555 48.9049H125.224L67.4255 149.074H103.658L32.4874 264L93.3056 204.077L120.48 201.394H96.325L106.246 187.979H145.066L110.99 184.849L120.48 174.563H169.221L125.224 171.433L145.066 149.074L180.004 145.944H148.516L162.75 129.845H202.433L165.338 126.715L174.397 115.982H224L132.988 109.275L145.066 91.8345L185.611 88.7042L148.516 86.0211L202.433 10Z" fill="black" stroke="black"/>
<path d="M198 1H141.47L52.3081 144.706H92.2929L15.5 264L62.8788 218.862L170.424 106.476L123.545 102.792L198 1Z" fill="black" stroke="black"/>
<path d="M198 1H141.47L52.3081 144.706H92.2929L15.5 264L62.8788 218.862L170.424 106.476L123.545 102.792L198 1Z" fill="url(#paint0_linear_517_118)" stroke="black"/>
<path d="M57 225L17 263.5H31.5L57 225Z" fill="black" stroke="black"/>
<defs>
<linearGradient id="paint0_linear_517_118" x1="107" y1="1" x2="107" y2="264" gradientUnits="userSpaceOnUse">
<stop stop-color="#FFC90A"/>
<stop offset="0.5" stop-color="#FFAC0C"/>
<stop offset="1" stop-color="#272523"/>
</linearGradient>
</defs>
</svg>
